<svg width="27" height="20" viewBox="0 0 27 20" fill="none" xmlns="http://www.w3.org/2000/svg">
<path d="M22.4855 19.3815H4.24219C3.52196 19.3825 2.81617 19.1796 2.20649 18.7961C1.59682 18.4127 1.1082 17.8644 0.797192 17.2148C0.433121 16.444 0.292896 15.5865 0.392495 14.7399C0.492095 13.8933 0.827513 13.0917 1.36053 12.4265L10.4822 1.37647C10.8402 0.96344 11.2827 0.632187 11.7799 0.40516C12.2771 0.178133 12.8173 0.0606384 13.3639 0.0606384C13.9104 0.0606384 14.4506 0.178133 14.9478 0.40516C15.445 0.632187 15.8876 0.96344 16.2455 1.37647L25.3672 12.4265C25.9002 13.0917 26.2356 13.8933 26.3352 14.7399C26.4348 15.5865 26.2946 16.444 25.9305 17.2148C25.6195 17.8644 25.1309 18.4127 24.5212 18.7961C23.9116 19.1796 23.2058 19.3825 22.4855 19.3815Z" fill="#072260"/>
</svg>
