<svg width="11" height="12" viewBox="0 0 11 12" fill="none" xmlns="http://www.w3.org/2000/svg">
<path d="M7.42963 9.25376H3.57046C3.41811 9.25398 3.2688 9.21105 3.13983 9.12993C3.01087 9.04882 2.9075 8.93284 2.84171 8.79542C2.7647 8.63237 2.73504 8.45097 2.7561 8.27188C2.77717 8.0928 2.84813 7.92323 2.96088 7.78251L4.89046 5.44501C4.96619 5.35763 5.05981 5.28756 5.16498 5.23954C5.27016 5.19151 5.38443 5.16666 5.50005 5.16666C5.61567 5.16666 5.72994 5.19151 5.83511 5.23954C5.94028 5.28756 6.03391 5.35763 6.10963 5.44501L8.03921 7.78251C8.15197 7.92323 8.22292 8.0928 8.24399 8.27188C8.26506 8.45097 8.2354 8.63237 8.15838 8.79542C8.09259 8.93284 7.98923 9.04882 7.86026 9.12993C7.73129 9.21105 7.58199 9.25398 7.42963 9.25376Z" fill="#072260"/>
</svg>
