<svg width="30" height="30" viewBox="0 0 30 30" fill="none" xmlns="http://www.w3.org/2000/svg">
<path d="M3.59586 14.8964C3.5953 16.9048 4.12243 18.8658 5.12477 20.5943L3.5 26.5L9.57097 24.9153C11.2501 25.8253 13.1315 26.3021 15.0433 26.3023H15.0483C21.3597 26.3023 26.4973 21.1896 26.5 14.9054C26.5012 11.8602 25.3111 8.99676 23.1487 6.84246C20.9868 4.68833 18.1115 3.50139 15.0479 3.5C8.73578 3.5 3.59856 8.61245 3.59595 14.8964" fill="url(#paint0_linear_900_1145)"/>
<path d="M13.2966 10.9181C13.0938 10.5205 12.8805 10.5125 12.6877 10.5056C12.5298 10.4996 12.3493 10.5 12.169 10.5C11.9885 10.5 11.6952 10.5599 11.4473 10.7987C11.1992 11.0377 10.5 11.6152 10.5 12.7899C10.5 13.9645 11.4698 15.0998 11.605 15.2593C11.7404 15.4184 13.4773 17.9061 16.2282 18.8631C18.5144 19.6584 18.9797 19.5003 19.4759 19.4604C19.9721 19.4206 21.0772 18.883 21.3026 18.3255C21.5282 17.768 21.5282 17.2902 21.4606 17.1903C21.393 17.0908 21.2125 17.0311 20.9418 16.9117C20.6712 16.7924 19.3405 16.2147 19.0925 16.135C18.8443 16.0554 18.6639 16.0157 18.4834 16.2547C18.3029 16.4934 17.7847 17.0311 17.6267 17.1903C17.4689 17.3499 17.3109 17.3698 17.0403 17.2504C16.7695 17.1306 15.8979 16.8788 14.8638 16.0654C14.0593 15.4326 13.5161 14.6511 13.3582 14.412C13.2003 14.1733 13.3413 14.0439 13.477 13.9249C13.5986 13.818 13.7477 13.6461 13.8832 13.5068C14.0181 13.3673 14.0632 13.2678 14.1534 13.1086C14.2438 12.9492 14.1985 12.8098 14.131 12.6904C14.0632 12.571 13.5373 11.3902 13.2966 10.9181Z" fill="white"/>
<defs>
<linearGradient id="paint0_linear_900_1145" x1="1153.5" y1="2303.5" x2="1153.5" y2="3.5" gradientUnits="userSpaceOnUse">
<stop stop-color="#1FAF38"/>
<stop offset="1" stop-color="#60D669"/>
</linearGradient>
</defs>
</svg>
