<svg width="88" height="44" viewBox="0 0 88 44" fill="none" xmlns="http://www.w3.org/2000/svg">
<path d="M32.8893 11.7387L9.85451 20.3066C8.92755 20.7056 8.61403 21.5046 9.63046 21.9382L15.5399 23.7497L29.8281 15.2322C30.6082 14.6975 31.4069 14.8401 30.7197 15.4283L18.448 26.1456L18.0625 30.6812C18.4196 31.3815 19.0733 31.3848 19.4903 31.0367L22.8855 27.938L28.7002 32.1379C30.0507 32.9091 30.7856 32.4114 31.0761 30.9979L34.8901 13.5786C35.2861 11.8387 34.6108 11.0721 32.8893 11.7387Z" fill="#229ED9"/>
<path d="M54.5959 21.8964C54.5953 23.9048 55.1224 25.8658 56.1248 27.5943L54.5 33.5L60.571 31.9153C62.2501 32.8253 64.1315 33.3021 66.0433 33.3023H66.0483C72.3597 33.3023 77.4973 28.1896 77.5 21.9054C77.5012 18.8602 76.3111 15.9968 74.1487 13.8425C71.9868 11.6883 69.1115 10.5014 66.0479 10.5C59.7358 10.5 54.5986 15.6124 54.596 21.8964" fill="url(#paint0_linear_914_6633)"/>
<path d="M64.2966 17.9181C64.0938 17.5205 63.8805 17.5125 63.6877 17.5056C63.5298 17.4996 63.3493 17.5 63.169 17.5C62.9885 17.5 62.6952 17.5599 62.4473 17.7987C62.1992 18.0377 61.5 18.6152 61.5 19.7899C61.5 20.9645 62.4698 22.0998 62.605 22.2593C62.7404 22.4184 64.4773 24.9061 67.2282 25.8631C69.5144 26.6584 69.9797 26.5003 70.4759 26.4604C70.9721 26.4206 72.0772 25.883 72.3026 25.3255C72.5282 24.768 72.5282 24.2902 72.4606 24.1903C72.393 24.0908 72.2125 24.0311 71.9418 23.9117C71.6712 23.7924 70.3405 23.2147 70.0925 23.135C69.8443 23.0554 69.6639 23.0157 69.4834 23.2547C69.3029 23.4934 68.7847 24.0311 68.6267 24.1903C68.4689 24.3499 68.3109 24.3698 68.0403 24.2504C67.7695 24.1306 66.8979 23.8788 65.8638 23.0654C65.0593 22.4326 64.5161 21.6511 64.3582 21.412C64.2003 21.1733 64.3413 21.0439 64.477 20.9249C64.5986 20.818 64.7477 20.6461 64.8832 20.5068C65.0181 20.3673 65.0632 20.2678 65.1534 20.1086C65.2438 19.9492 65.1985 19.8098 65.131 19.6904C65.0632 19.571 64.5373 18.3902 64.2966 17.9181Z" fill="white"/>
<defs>
<linearGradient id="paint0_linear_914_6633" x1="1204.5" y1="2310.5" x2="1204.5" y2="10.5" gradientUnits="userSpaceOnUse">
<stop stop-color="#1FAF38"/>
<stop offset="1" stop-color="#60D669"/>
</linearGradient>
</defs>
</svg>
