<svg width="26" height="27" viewBox="0 0 26 27" fill="none" xmlns="http://www.w3.org/2000/svg">
<rect y="0.823486" width="26" height="26" rx="13" fill="#F7F8F9"/>
<path d="M16.3726 17.1962C16.5832 16.9856 16.5832 16.6442 16.3726 16.4336L13.704 13.765L16.3733 11.0957C16.5839 10.8851 16.5839 10.5437 16.3733 10.3331C16.1627 10.1225 15.8213 10.1225 15.6108 10.3331L12.9414 13.0025L10.2721 10.3331C10.0615 10.1225 9.72007 10.1225 9.5095 10.3331C9.29892 10.5437 9.29892 10.8851 9.50949 11.0957L12.1788 13.765L9.51023 16.4336C9.29965 16.6442 9.29965 16.9856 9.51023 17.1962C9.7208 17.4068 10.0622 17.4068 10.2728 17.1962L12.9414 14.5276L15.61 17.1962C15.8206 17.4068 16.162 17.4068 16.3726 17.1962Z" fill="#191D23"/>
</svg>
