<svg width="71" height="71" viewBox="0 0 71 71" fill="none" xmlns="http://www.w3.org/2000/svg">
<rect x="0.5" y="0.5" width="70" height="70" rx="15" fill="url(#paint0_linear_558_962)"/>
<mask id="mask0_558_962" style="mask-type:luminance" maskUnits="userSpaceOnUse" x="31" y="12" width="28" height="29">
<path d="M44.4374 12.9446C37.6821 12.9446 32.0808 17.8684 31.0112 24.3235H41.1468L41.3361 25.4168C41.3745 25.5269 41.5894 26.0646 42.2573 26.7662C42.8689 27.4063 44.1457 27.7213 44.4553 27.7699L45.4277 27.9236L45.6401 28.8863C45.6836 29.0886 46.6022 33.4722 44.5474 40.1935C52.0167 40.1372 58.0555 34.0611 58.0555 26.5742C58.0555 19.0872 51.9604 12.9497 44.44 12.9497L44.4374 12.9446Z" fill="white"/>
</mask>
<g mask="url(#mask0_558_962)">
<path d="M51.5374 33.3799C54.4889 29.0437 53.3688 23.1343 49.0355 20.1809C44.7022 17.2274 38.7967 18.3483 35.8452 22.6844C32.8937 27.0205 34.0138 32.9299 38.3471 35.8834C42.6804 38.8369 48.5859 37.716 51.5374 33.3799Z" fill="url(#paint1_linear_558_962)" fill-opacity="0.55"/>
</g>
<g clip-path="url(#clip0_558_962)">
<path d="M37.6167 18.1258C38.1307 18.3127 38.2339 18.7393 38.2822 19.2189C38.391 20.3009 38.5248 21.38 38.6336 22.4619C38.6549 22.6757 38.7219 22.791 38.9329 22.856C39.6783 23.0838 40.3968 23.3821 41.0837 23.7502C41.2873 23.859 41.4155 23.8041 41.5745 23.6759C42.4584 22.9602 43.348 22.2509 44.2375 21.5427C44.7933 21.1002 45.1289 21.116 45.6271 21.6124C47.0195 23.0001 48.4109 24.3888 49.8005 25.7803C50.2848 26.2654 50.3043 26.6075 49.8805 27.141C49.1657 28.0417 48.4491 28.9405 47.725 29.8329C47.5921 29.9965 47.5558 30.1247 47.6618 30.3236C48.0289 31.0115 48.3217 31.7318 48.5569 32.4745C48.6164 32.6613 48.7065 32.745 48.9166 32.7654C49.9985 32.8723 51.0777 33.009 52.1596 33.1177C53.0649 33.2088 53.2769 33.4263 53.2778 34.3261C53.2778 36.2055 53.2778 38.0849 53.2778 39.9644C53.2778 40.7991 53.0612 41.0324 52.2265 41.1216C51.1204 41.2406 50.0162 41.3698 48.9101 41.4832C48.7279 41.5018 48.6247 41.5529 48.5652 41.7397C48.3217 42.5056 48.0187 43.2492 47.6413 43.9584C47.5372 44.1536 47.6097 44.2717 47.725 44.4148C48.4388 45.3006 49.149 46.1883 49.8572 47.0778C50.3099 47.6458 50.2895 47.972 49.7689 48.4944C48.3979 49.8691 47.026 51.2429 45.6531 52.6149C45.1298 53.1382 44.8064 53.1586 44.2366 52.705C43.3563 52.0051 42.4742 51.3061 41.6033 50.5951C41.4202 50.4454 41.2808 50.3961 41.0512 50.5198C40.3754 50.8823 39.6653 51.1686 38.9338 51.3991C38.7507 51.4567 38.6587 51.5413 38.6382 51.7551C38.5332 52.8249 38.3947 53.8911 38.2896 54.9609C38.1958 55.9174 37.9931 56.1209 37.045 56.1209C35.1777 56.1209 33.3103 56.1209 31.4439 56.1209C30.6083 56.1209 30.3713 55.9043 30.282 55.0743C30.163 53.9682 30.0311 52.864 29.9223 51.7579C29.9019 51.5487 29.821 51.4558 29.6332 51.3972C28.8896 51.163 28.1693 50.8693 27.4824 50.503C27.2853 50.398 27.1543 50.4315 26.9907 50.5644C26.1086 51.282 25.2181 51.9902 24.3286 52.6985C23.7551 53.1558 23.4298 53.1382 22.9111 52.6204C21.528 51.2401 20.1468 49.8589 18.7665 48.4758C18.2664 47.9739 18.2487 47.6439 18.6921 47.0862C19.3995 46.1957 20.1068 45.3053 20.8262 44.4241C20.9712 44.2457 20.9935 44.109 20.8848 43.9017C20.5344 43.2344 20.2388 42.541 20.0213 41.8178C19.9507 41.5826 19.8298 41.4962 19.5816 41.472C18.5118 41.3707 17.4447 41.235 16.3758 41.1272C15.8971 41.0789 15.4677 40.9794 15.2827 40.4626V33.7832C15.4677 33.2664 15.898 33.167 16.3758 33.1186C17.4577 33.009 18.536 32.8723 19.6179 32.7691C19.8596 32.7459 19.9562 32.6427 20.0232 32.4327C20.2397 31.7495 20.4898 31.0756 20.8458 30.4528C21.0205 30.148 20.948 29.9546 20.7444 29.7083C20.0436 28.8606 19.3623 27.9971 18.6782 27.1355C18.2543 26.6019 18.2748 26.2636 18.7618 25.7747C20.1496 24.3832 21.5401 22.9927 22.9316 21.6049C23.4307 21.1067 23.7625 21.0909 24.3212 21.5352C25.2209 22.25 26.1197 22.9676 27.0139 23.6898C27.1515 23.8013 27.263 23.8506 27.4387 23.7577C28.1498 23.3831 28.8915 23.0782 29.6574 22.8337C29.8377 22.7761 29.9028 22.6832 29.9223 22.4954C30.0338 21.4014 30.1677 20.3102 30.2783 19.2161C30.3266 18.7365 30.4298 18.3108 30.9438 18.123H37.6232L37.6167 18.1258ZM48.3115 26.5536C48.2474 26.482 48.1916 26.416 48.1312 26.3556C47.1087 25.3313 46.0826 24.3107 45.0675 23.2799C44.904 23.1135 44.8036 23.1014 44.6195 23.252C43.7876 23.9333 42.9316 24.5868 42.1062 25.2765C41.6851 25.6278 41.2901 25.6641 40.8216 25.3908C39.9544 24.8842 39.0249 24.5171 38.0628 24.228C37.2904 23.9956 37.1817 23.8562 37.1027 23.0736C37.0014 22.0771 36.8824 21.0835 36.7876 20.0871C36.7606 19.8054 36.677 19.6911 36.3628 19.6958C35.015 19.7153 33.6663 19.7041 32.3186 19.7041C31.812 19.7041 31.8166 19.7041 31.7618 20.2237C31.6567 21.2192 31.535 22.2138 31.4448 23.2102C31.3956 23.7474 31.1455 24.0663 30.6166 24.2038C29.584 24.4724 28.6071 24.8898 27.6813 25.4187C27.2472 25.6669 26.8754 25.6222 26.4915 25.3071C25.6503 24.6165 24.7905 23.9501 23.9456 23.2641C23.7774 23.1275 23.6752 23.0866 23.4958 23.2697C22.4826 24.3033 21.4583 25.3257 20.4266 26.3398C20.2518 26.5118 20.2676 26.614 20.4108 26.7888C21.0828 27.6123 21.726 28.4609 22.412 29.2733C22.7875 29.7185 22.8135 30.1303 22.5235 30.622C22.0197 31.4771 21.6637 32.3983 21.3784 33.3473C21.1488 34.1123 21.0066 34.221 20.2193 34.3019C19.2238 34.4041 18.2292 34.525 17.2328 34.6216C16.9474 34.6495 16.8443 34.7443 16.8489 35.0501C16.8675 36.423 16.8712 37.7959 16.8471 39.1687C16.8406 39.5359 16.98 39.6186 17.3044 39.6484C18.3501 39.745 19.393 39.8817 20.4386 39.982C20.9415 40.0304 21.2176 40.2916 21.344 40.7638C21.6228 41.8076 22.0383 42.7966 22.5728 43.7335C22.8209 44.1685 22.7717 44.5403 22.4566 44.9223C21.7576 45.7728 21.0819 46.641 20.3866 47.4942C20.2602 47.6495 20.2546 47.7396 20.4033 47.8865C21.4416 48.9117 22.4761 49.9416 23.4976 50.9845C23.6789 51.1695 23.7811 51.1202 23.9475 50.9864C24.7822 50.3078 25.6355 49.6516 26.4627 48.9647C26.8708 48.6254 27.2593 48.5864 27.7157 48.8522C28.595 49.3635 29.5347 49.7381 30.5088 50.029C31.2636 50.2539 31.3751 50.4036 31.455 51.1955C31.5545 52.1789 31.6791 53.1605 31.7683 54.1448C31.798 54.4748 31.9263 54.5603 32.2498 54.5556C33.6096 54.5371 34.9713 54.5343 36.3312 54.5566C36.676 54.5622 36.769 54.4422 36.7987 54.1262C36.8963 53.0805 37.032 52.0376 37.1296 50.992C37.178 50.477 37.4345 50.187 37.9253 50.0559C38.957 49.7817 39.9367 49.3737 40.8616 48.842C41.3068 48.5864 41.687 48.6236 42.0829 48.9517C42.9213 49.6451 43.7811 50.3125 44.627 50.9975C44.7813 51.123 44.877 51.1704 45.048 50.9966C46.0705 49.9556 47.1041 48.9247 48.1442 47.9014C48.3068 47.7415 48.2994 47.6476 48.1618 47.4794C47.4889 46.6558 46.8457 45.8081 46.1588 44.9967C45.7721 44.5412 45.7461 44.123 46.0444 43.6155C46.5408 42.7715 46.8959 41.8624 47.1766 40.9246C47.4155 40.1261 47.5521 40.0285 48.3951 39.9458C49.3795 39.8501 50.361 39.7283 51.3444 39.6326C51.6186 39.6056 51.7097 39.5052 51.706 39.2199C51.6902 37.847 51.6837 36.4741 51.7088 35.1013C51.7153 34.7388 51.5908 34.6421 51.2617 34.6123C50.2644 34.5212 49.2707 34.4013 48.2752 34.2972C47.5558 34.2219 47.3932 34.0946 47.1896 33.3993C46.9005 32.4113 46.5204 31.4613 46.0045 30.57C45.7396 30.1136 45.774 29.725 46.1142 29.3161C46.8011 28.4888 47.4619 27.6392 48.133 26.7981C48.1944 26.7218 48.2492 26.641 48.3134 26.5545L48.3115 26.5536Z" fill="url(#paint2_linear_558_962)"/>
<path d="M38.9715 23.5044L40.6477 24.2228C41.3352 24.5174 42.1296 24.4038 42.707 23.9283L43.4709 23.2992C44.2659 22.6445 45.4282 22.7006 46.1565 23.4289L47.9993 25.2717C48.7165 25.9888 48.7833 27.1292 48.1549 27.9252L47.2856 29.0262C46.8147 29.6228 46.7225 30.4348 47.0479 31.1217L47.6908 32.479C47.9836 33.097 48.5717 33.5226 49.2503 33.6074L50.7933 33.8002C51.7941 33.9254 52.5452 34.7762 52.5452 35.7848V38.5362C52.5452 39.5139 51.8384 40.3482 50.874 40.509L49.1654 40.7937C48.5343 40.8989 47.9915 41.2998 47.7054 41.8721L47.0849 43.113C46.7381 43.8066 46.8235 44.6381 47.304 45.2467L48.1549 46.3245C48.7833 47.1205 48.7165 48.2609 47.9993 48.978L45.9475 51.0299C45.2303 51.747 44.09 51.8138 43.294 51.1854L42.2162 50.3345C41.6076 49.854 40.776 49.7687 40.0825 50.1154L38.8819 50.7157C38.2871 51.0131 37.8791 51.5866 37.7931 52.2459L37.6097 53.6517C37.4798 54.6479 36.6311 55.393 35.6265 55.393H32.9275C31.9229 55.393 31.0742 54.6479 30.9443 53.6517L30.7645 52.2731C30.6765 51.5988 30.252 51.0154 29.6374 50.7243L28.1619 50.0254C27.5345 49.7282 26.7979 49.7777 26.2158 50.156L24.828 51.0581C24.0493 51.5642 23.0247 51.4678 22.3542 50.8252L20.4262 48.9776C19.6822 48.2646 19.6017 47.1031 20.2403 46.2943L21.1457 45.1474C21.5849 44.591 21.6969 43.8438 21.44 43.1832L20.9915 42.03C20.734 41.368 20.1448 40.8922 19.4435 40.78L17.6928 40.4999C16.7226 40.3446 16.0088 39.5076 16.0088 38.525V35.7247C16.0088 34.7421 16.7226 33.905 17.6928 33.7498L19.4199 33.4735C20.1338 33.3592 20.7306 32.8685 20.9806 32.19L21.4823 30.8282C21.7147 30.1973 21.6146 29.4918 21.2157 28.9504L20.3172 27.7311C19.7307 26.935 19.8139 25.8297 20.5131 25.1305L22.2827 23.361C22.9819 22.6617 24.0872 22.5785 24.8833 23.1651L26.0286 24.009C26.61 24.4374 27.3772 24.5191 28.0357 24.2227L29.6122 23.5133C30.2412 23.2303 30.68 22.6431 30.7732 21.9597L30.9355 20.7691C31.0707 19.7781 31.917 19.0393 32.9172 19.0393H35.6368C36.637 19.0393 37.4833 19.7781 37.6185 20.7691L37.7776 21.9363C37.8726 22.6324 38.3257 23.2276 38.9715 23.5044Z" fill="url(#paint3_linear_558_962)" stroke="white"/>
<path d="M39.0093 35.0939C37.3846 36.7186 35.8211 38.2858 34.2531 39.8482C34.1229 39.9784 33.9835 40.1094 33.8236 40.1968C33.4723 40.3892 33.0763 40.2665 32.7882 39.8882C32.2649 39.1995 31.7369 38.5126 31.235 37.808C31.063 37.5663 30.9738 37.5766 30.7749 37.7783C29.2003 39.3696 27.6137 40.9488 26.0307 42.5317C25.8467 42.7157 25.6636 42.8998 25.3801 42.9221C25.0018 42.9528 24.7434 42.7808 24.5649 42.4601C22.3471 38.4707 22.8649 33.3557 25.8746 29.9221C28.3359 27.1141 31.4692 25.8258 35.1816 26.0889C40.0978 26.4375 44.2508 30.2028 45.1542 35.0269C46.2854 41.0715 42.3936 46.8539 36.3537 48.0027C33.0996 48.6218 30.1252 47.8689 27.4733 45.8705C27.2948 45.7357 27.2595 45.6465 27.4213 45.4689C27.6964 45.1687 27.8925 44.6891 28.2225 44.5747C28.5552 44.4595 28.8332 44.9819 29.1882 45.1399C29.2868 45.1836 29.376 45.2477 29.5284 45.3369C29.5284 44.7495 29.5284 44.2122 29.5284 43.6759C29.5284 43.1814 29.5442 42.686 29.5219 42.1924C29.5098 41.922 29.6047 41.8541 29.8565 41.8708C30.1642 41.8913 30.4756 41.8931 30.7833 41.8708C31.0482 41.8513 31.1142 41.948 31.1114 42.2036C31.0984 43.3785 31.1151 44.5534 31.0993 45.7283C31.0956 45.9997 31.1755 46.1326 31.4413 46.1846C31.7676 46.2497 32.0929 46.3278 32.4099 46.4282C32.6553 46.5062 32.7064 46.4282 32.7036 46.1939C32.6924 45.4029 32.712 44.6101 32.6934 43.8191C32.6859 43.5244 32.7761 43.4259 33.0689 43.4482C33.3766 43.4714 33.6879 43.4668 33.9956 43.4491C34.2317 43.4352 34.2847 43.5309 34.2819 43.7494C34.2717 44.6026 34.2847 45.4559 34.2726 46.3092C34.2689 46.5462 34.3246 46.6475 34.5793 46.6122C34.8972 46.5685 35.2188 46.5453 35.5395 46.5258C35.783 46.5109 35.863 46.4096 35.8611 46.1558C35.8481 44.6221 35.8546 43.0885 35.8546 41.5548C35.8546 41.2369 36.0154 41.078 36.337 41.078C36.5843 41.078 36.8334 41.0956 37.0787 41.0733C37.3697 41.0473 37.4589 41.1468 37.4561 41.4442C37.4412 42.8291 37.4496 44.215 37.4496 45.6V46.0322C38.0008 45.8807 38.4656 45.6297 38.9294 45.3788C39.0911 45.2914 39.0233 45.1371 39.0242 45.0135C39.0288 43.2939 39.0353 41.5753 39.0195 39.8557C39.0167 39.5555 39.106 39.4727 39.3904 39.495C39.6851 39.5183 39.9853 39.5173 40.2799 39.495C40.5421 39.4755 40.6127 39.5666 40.6099 39.825C40.5978 41.1114 40.6025 42.3979 40.6071 43.6843C40.6071 43.8135 40.5625 43.9529 40.6685 44.0998C41.2912 43.57 41.8043 42.9537 42.2161 42.2687C44.2684 38.8518 44.3102 35.3876 42.2059 32.0079C40.6973 29.5847 38.4358 28.1672 35.5906 27.7666C30.5676 27.0593 25.9592 30.3339 24.9609 35.3039C24.6114 37.0421 24.7564 38.7459 25.368 40.4097C25.5139 40.8066 25.5167 40.8056 25.8067 40.5156C27.3116 39.0117 28.8155 37.5068 30.3194 36.0029C30.9682 35.3541 31.3911 35.3885 31.9488 36.1321C32.4387 36.7846 32.9323 37.4343 33.4156 38.0924C33.5318 38.2504 33.608 38.2672 33.7521 38.1212C35.0766 36.7874 36.4076 35.4592 37.7359 34.129C37.7675 34.0974 37.7889 34.0538 37.8558 33.9543H36.0033C35.3824 33.9543 35.072 33.6507 35.072 33.0434C35.072 32.5985 35.2888 32.376 35.7226 32.376C37.009 32.376 38.2955 32.3751 39.5819 32.376C40.3199 32.376 40.6006 32.6484 40.6025 33.3752C40.6062 34.7732 40.5969 36.1702 40.609 37.5682C40.6108 37.8368 40.5495 37.9511 40.2604 37.9279C39.9528 37.9037 39.6414 37.9093 39.3337 37.927C39.093 37.9409 39.0149 37.8628 39.0205 37.6156C39.0363 36.8618 39.026 36.107 39.026 35.3523C39.026 35.2937 39.0186 35.2352 39.0093 35.0948V35.0939Z" fill="white"/>
</g>
<defs>
<linearGradient id="paint0_linear_558_962" x1="0.5" y1="35.5" x2="70.5" y2="35.5" gradientUnits="userSpaceOnUse">
<stop stop-color="#1CD8D2"/>
<stop offset="1" stop-color="#93EDC7"/>
</linearGradient>
<linearGradient id="paint1_linear_558_962" x1="44.0622" y1="18.5399" x2="43.3225" y2="37.5244" gradientUnits="userSpaceOnUse">
<stop stop-color="#F6F7F8"/>
<stop offset="1" stop-color="#004CFF"/>
</linearGradient>
<linearGradient id="paint2_linear_558_962" x1="34.2695" y1="18.1193" x2="34.2695" y2="56.1285" gradientUnits="userSpaceOnUse">
<stop stop-color="white" stop-opacity="0.9"/>
<stop offset="0.02" stop-color="white" stop-opacity="0.7056"/>
<stop offset="0.05" stop-color="white" stop-opacity="0.5329"/>
<stop offset="0.08" stop-color="white" stop-opacity="0.4225"/>
<stop offset="0.13" stop-color="white" stop-opacity="0.3364"/>
<stop offset="0.18" stop-color="white" stop-opacity="0.2809"/>
<stop offset="0.25" stop-color="white" stop-opacity="0.2601"/>
<stop offset="0.46" stop-color="white" stop-opacity="0.5"/>
<stop offset="0.54" stop-color="#FDFDFD" stop-opacity="0.2116"/>
<stop offset="0.69" stop-color="#F8F8F8" stop-opacity="0.1225"/>
<stop offset="0.88" stop-color="#F1F1F1" stop-opacity="0.0289"/>
<stop offset="0.95" stop-color="#EFEFEF" stop-opacity="0.1"/>
</linearGradient>
<linearGradient id="paint3_linear_558_962" x1="34.2666" y1="19.0357" x2="34.2666" y2="55.4003" gradientUnits="userSpaceOnUse">
<stop stop-color="white" stop-opacity="0.9"/>
<stop offset="0.02" stop-color="white" stop-opacity="0.7056"/>
<stop offset="0.05" stop-color="white" stop-opacity="0.5329"/>
<stop offset="0.08" stop-color="white" stop-opacity="0.4225"/>
<stop offset="0.13" stop-color="white" stop-opacity="0.3364"/>
<stop offset="0.18" stop-color="white" stop-opacity="0.2809"/>
<stop offset="0.25" stop-color="white" stop-opacity="0.2601"/>
<stop offset="0.46" stop-color="white" stop-opacity="0.5"/>
<stop offset="0.54" stop-color="#FDFDFD" stop-opacity="0.2116"/>
<stop offset="0.69" stop-color="#F8F8F8" stop-opacity="0.1225"/>
<stop offset="0.88" stop-color="#F1F1F1" stop-opacity="0.0289"/>
<stop offset="0.95" stop-color="#EFEFEF" stop-opacity="0.1"/>
</linearGradient>
<clipPath id="clip0_558_962">
<rect width="37.9979" height="37.9979" fill="white" transform="translate(15.2778 18.126)"/>
</clipPath>
</defs>
</svg>
