<svg width="26" height="20" viewBox="0 0 26 20" fill="none" xmlns="http://www.w3.org/2000/svg">
<path d="M3.87824 0.0606221L22.1216 0.0606221C22.8418 0.0595793 23.5476 0.262524 24.1573 0.645966C24.767 1.02941 25.2556 1.57767 25.5666 2.22729C25.9306 2.99806 26.0709 3.85561 25.9713 4.7022C25.8717 5.5488 25.5363 6.35039 25.0032 7.01562L15.8816 18.0656C15.5236 18.4787 15.081 18.8099 14.5838 19.0369C14.0867 19.264 13.5465 19.3815 12.9999 19.3815C12.4533 19.3815 11.9132 19.264 11.416 19.0369C10.9188 18.8099 10.4762 18.4787 10.1182 18.0656L0.996574 7.01562C0.463561 6.35039 0.128143 5.5488 0.028544 4.7022C-0.0710553 3.85561 0.0691736 2.99806 0.433244 2.22729C0.744251 1.57767 1.23287 1.02941 1.84254 0.645966C2.45222 0.262524 3.15802 0.0595793 3.87824 0.0606221Z" fill="#072260"/>
</svg>
