<svg width="139" height="32" viewBox="0 0 139 32" fill="none" xmlns="http://www.w3.org/2000/svg">
<path d="M138.57 4.24391C138.705 3.70831 138.38 3.16492 137.844 3.03021L129.116 0.835102C128.581 0.700399 128.037 1.0254 127.902 1.561C127.768 2.09661 128.093 2.64 128.628 2.7747L136.387 4.72591L134.436 12.4843C134.301 13.0199 134.626 13.5633 135.161 13.698C135.697 13.8327 136.24 13.5077 136.375 12.9721L138.57 4.24391ZM0.708284 28.6871C24.918 33.681 86.2094 35.9016 138.114 4.85823L137.087 3.14179C85.7473 33.8475 25.0109 31.6581 1.11233 26.7284L0.708284 28.6871Z" fill="#072260"/>
</svg>
