<svg width="459" height="338" viewBox="0 0 459 338" fill="none" xmlns="http://www.w3.org/2000/svg">
<g opacity="0.45" clip-path="url(#clip0_558_902)">
<g opacity="0.45" filter="url(#filter0_i_558_902)">
<g filter="url(#filter1_i_558_902)">
<path d="M303.95 121.097L256.524 135.888L286.11 230.754L333.535 215.964L303.95 121.097Z" fill="url(#paint0_radial_558_902)"/>
<path d="M303.95 121.097L256.524 135.888L286.11 230.754L333.535 215.964L303.95 121.097Z" fill="#1F2E7E" fill-opacity="0.2"/>
</g>
<g filter="url(#filter2_i_558_902)">
<path d="M188.583 157.076L141.157 171.866L170.743 266.733L218.168 251.943L188.583 157.076Z" fill="url(#paint1_radial_558_902)"/>
<path d="M188.583 157.076L141.157 171.866L170.743 266.733L218.168 251.943L188.583 157.076Z" fill="#1F2E7E" fill-opacity="0.2"/>
</g>
</g>
<g opacity="0.45" filter="url(#filter3_i_558_902)">
<path d="M263.275 193.58L215.85 208.37L228.438 248.737L275.864 233.946L263.275 193.58Z" fill="url(#paint2_radial_558_902)"/>
<path d="M263.275 193.58L215.85 208.37L228.438 248.737L275.864 233.946L263.275 193.58Z" fill="#1F2E7E" fill-opacity="0.2"/>
</g>
<g opacity="0.45" filter="url(#filter4_ii_558_902)">
<path d="M195.938 61.1047L138.068 161.92L195.75 143.931L201.497 162.36L248.922 147.57L243.175 129.141L300.857 111.152L195.938 61.1047Z" fill="url(#paint3_radial_558_902)"/>
<path d="M195.938 61.1047L138.068 161.92L195.75 143.931L201.497 162.36L248.922 147.57L243.175 129.141L300.857 111.152L195.938 61.1047Z" fill="#1F2E7E" fill-opacity="0.2"/>
</g>
<g filter="url(#filter5_i_558_902)">
<path d="M208.496 172.826L205.083 173.891L202.608 165.957L205.775 164.969C206.583 164.717 207.246 164.737 207.761 165.03C208.207 165.283 208.531 165.725 208.729 166.361C208.837 166.709 208.862 167.061 208.8 167.411C208.73 167.757 208.57 168.03 208.33 168.237C208.802 168.144 209.224 168.185 209.595 168.365C210.07 168.591 210.404 169.019 210.599 169.645C210.795 170.271 210.765 170.878 210.483 171.39C210.138 172.045 209.479 172.527 208.495 172.834L208.496 172.826ZM205.227 166.878L205.709 168.425L206.102 168.303C206.477 168.186 206.722 168.019 206.832 167.802C206.924 167.633 206.934 167.439 206.865 167.216C206.795 166.993 206.678 166.842 206.502 166.743C206.291 166.636 205.994 166.638 205.619 166.755L205.227 166.878ZM206.187 169.956L206.706 171.622L207.186 171.472C207.873 171.258 208.279 171.013 208.399 170.741C208.474 170.578 208.478 170.389 208.412 170.176C208.335 169.93 208.205 169.762 208.024 169.671C207.791 169.553 207.323 169.602 206.63 169.818L206.187 169.956Z" fill="#16242C"/>
<path d="M210.817 166.265L212.783 165.652L213.71 168.626C213.816 168.967 213.995 169.195 214.246 169.308C214.443 169.394 214.695 169.391 214.996 169.297C215.297 169.203 215.507 169.055 215.625 168.852C215.758 168.61 215.771 168.332 215.672 168.014L214.745 165.04L216.71 164.427L217.745 167.745C217.933 168.349 217.905 168.879 217.662 169.336C217.317 169.991 216.607 170.489 215.528 170.825C214.368 171.187 213.46 171.193 212.811 170.838C212.358 170.598 212.042 170.179 211.856 169.582L210.821 166.264L210.817 166.265Z" fill="#16242C"/>
<path d="M219.238 168.988L219.526 167.449C219.827 167.545 220.128 167.595 220.433 167.597C220.715 167.607 220.982 167.57 221.235 167.491C221.465 167.419 221.616 167.319 221.694 167.19C221.739 167.107 221.747 167.012 221.715 166.91C221.683 166.808 221.624 166.737 221.542 166.701C221.458 166.659 221.265 166.647 220.969 166.671L220.418 166.714C219.955 166.754 219.586 166.7 219.315 166.547C219.002 166.375 218.788 166.107 218.675 165.743C218.514 165.228 218.552 164.741 218.785 164.287C219.077 163.725 219.664 163.308 220.547 163.033C221.152 162.844 221.773 162.776 222.41 162.83L222.125 164.249C221.678 164.198 221.306 164.217 221.011 164.309C220.832 164.365 220.691 164.448 220.592 164.559C220.496 164.657 220.466 164.763 220.501 164.875C220.543 165.009 220.651 165.083 220.828 165.1C220.899 165.103 221.012 165.097 221.16 165.083C221.307 165.066 221.43 165.056 221.529 165.054L221.914 165.038C222.296 165.024 222.609 165.077 222.853 165.202C223.209 165.368 223.458 165.679 223.599 166.132C223.768 166.673 223.722 167.169 223.46 167.625C223.141 168.21 222.534 168.644 221.641 168.922C220.863 169.165 220.061 169.188 219.239 168.992L219.238 168.988Z" fill="#16242C"/>
<path d="M223.251 160.789C222.969 160.646 222.782 160.428 222.691 160.136C222.6 159.844 222.629 159.558 222.78 159.281C222.931 159.003 223.159 158.817 223.46 158.723C223.761 158.629 224.054 158.653 224.336 158.795C224.618 158.938 224.805 159.156 224.896 159.448C224.987 159.74 224.958 160.026 224.807 160.304C224.656 160.581 224.428 160.767 224.127 160.861C223.826 160.955 223.533 160.931 223.251 160.789ZM223.502 162.308L225.464 161.696L227.122 167.014L225.16 167.626L223.502 162.308Z" fill="#16242C"/>
<path d="M228.465 166.594L226.806 161.276L228.768 160.664L228.976 161.33C229.222 160.678 229.723 160.237 230.474 160.003C231.16 159.789 231.761 159.81 232.272 160.068C232.549 160.208 232.754 160.378 232.888 160.581C233.022 160.784 233.144 161.055 233.25 161.396L234.303 164.773L232.341 165.385L231.503 162.697C231.339 162.172 231.151 161.853 230.933 161.738C230.737 161.633 230.507 161.622 230.237 161.707C229.942 161.798 229.728 161.955 229.59 162.182C229.437 162.438 229.42 162.753 229.536 163.127L230.427 165.982L228.465 166.594Z" fill="#16242C"/>
<path d="M240.7 160.033L240.763 160.236L236.677 161.511C236.793 161.884 237 162.144 237.3 162.295C237.533 162.413 237.832 162.417 238.19 162.305C238.437 162.228 238.631 162.113 238.785 161.961C238.912 161.824 238.991 161.67 239.018 161.496L240.895 160.911C240.908 161.378 240.798 161.812 240.574 162.213C240.203 162.868 239.536 163.346 238.571 163.647C237.607 163.947 236.773 163.913 236.049 163.545C235.344 163.189 234.868 162.603 234.614 161.787C234.359 160.971 234.407 160.161 234.794 159.472C235.181 158.786 235.848 158.294 236.799 157.997C237.675 157.724 238.454 157.747 239.135 158.064C239.886 158.423 240.409 159.077 240.705 160.028L240.7 160.033ZM236.396 160.396L238.619 159.703C238.489 159.492 238.325 159.334 238.123 159.232C237.867 159.103 237.567 159.092 237.225 159.199C236.884 159.306 236.653 159.482 236.516 159.733C236.408 159.958 236.369 160.178 236.4 160.395L236.396 160.396Z" fill="#16242C"/>
<path d="M242.128 161.85L242.417 160.31C242.718 160.407 243.019 160.457 243.324 160.459C243.605 160.468 243.872 160.432 244.126 160.353C244.356 160.281 244.506 160.18 244.585 160.051C244.63 159.969 244.637 159.873 244.605 159.772C244.574 159.67 244.514 159.598 244.433 159.563C244.349 159.521 244.156 159.509 243.859 159.533L243.308 159.575C242.846 159.615 242.476 159.561 242.206 159.408C241.892 159.236 241.679 158.968 241.565 158.604C241.405 158.09 241.442 157.603 241.676 157.149C241.968 156.587 242.554 156.17 243.437 155.894C244.043 155.706 244.664 155.638 245.3 155.691L245.015 157.111C244.569 157.06 244.196 157.079 243.902 157.171C243.723 157.226 243.582 157.31 243.482 157.42C243.387 157.518 243.357 157.625 243.392 157.736C243.434 157.871 243.542 157.945 243.718 157.962C243.79 157.965 243.903 157.958 244.051 157.944C244.197 157.927 244.321 157.918 244.42 157.916L244.805 157.9C245.186 157.885 245.5 157.938 245.743 158.064C246.099 158.23 246.348 158.541 246.49 158.993C246.658 159.534 246.613 160.031 246.35 160.487C246.032 161.072 245.425 161.505 244.532 161.784C243.754 162.027 242.952 162.05 242.129 161.853L242.128 161.85Z" fill="#16242C"/>
<path d="M247.556 160.157L247.844 158.617C248.145 158.714 248.447 158.764 248.752 158.766C249.033 158.776 249.3 158.739 249.554 158.66C249.784 158.588 249.934 158.487 250.013 158.359C250.058 158.276 250.065 158.18 250.033 158.079C250.002 157.977 249.942 157.906 249.86 157.87C249.777 157.828 249.584 157.816 249.287 157.84L248.736 157.883C248.273 157.922 247.904 157.869 247.634 157.715C247.32 157.543 247.107 157.275 246.993 156.912C246.833 156.397 246.87 155.91 247.103 155.456C247.396 154.894 247.982 154.477 248.865 154.202C249.47 154.013 250.091 153.945 250.728 153.998L250.443 155.418C249.997 155.367 249.624 155.386 249.33 155.478C249.15 155.534 249.009 155.617 248.91 155.727C248.815 155.825 248.785 155.932 248.819 156.043C248.861 156.178 248.97 156.252 249.146 156.269C249.217 156.272 249.33 156.265 249.478 156.252C249.625 156.235 249.748 156.225 249.848 156.223L250.233 156.207C250.614 156.192 250.928 156.246 251.171 156.371C251.527 156.537 251.776 156.848 251.917 157.301C252.086 157.841 252.04 158.338 251.778 158.794C251.459 159.379 250.852 159.813 249.959 160.091C249.181 160.334 248.379 160.357 247.557 160.16L247.556 160.157Z" fill="#16242C"/>
<path d="M216.606 185.176L216.994 183.228C217.751 183.585 218.461 183.659 219.124 183.452C219.499 183.335 219.744 183.158 219.861 182.924C219.957 182.746 219.976 182.557 219.915 182.36C219.854 182.163 219.729 182.037 219.533 181.957C219.367 181.887 218.972 181.859 218.348 181.87L217.745 181.875C217.144 181.878 216.686 181.788 216.367 181.599C215.955 181.372 215.653 180.951 215.463 180.342C215.215 179.548 215.266 178.831 215.613 178.194C215.972 177.535 216.593 177.064 217.476 176.789C218.359 176.513 219.227 176.477 220.203 176.643L219.859 178.514C219.28 178.302 218.758 178.27 218.292 178.416C217.997 178.508 217.788 178.659 217.666 178.874C217.569 179.051 217.543 179.218 217.59 179.369C217.637 179.519 217.709 179.619 217.813 179.691C217.97 179.79 218.244 179.834 218.635 179.827L219.344 179.815C220.095 179.807 220.671 179.915 221.073 180.135C221.539 180.389 221.862 180.807 222.043 181.387C222.302 182.22 222.253 182.965 221.892 183.628C221.502 184.343 220.781 184.863 219.726 185.192C219.144 185.374 218.582 185.452 218.037 185.431C217.576 185.417 217.095 185.337 216.603 185.188L216.606 185.176Z" fill="#16242C"/>
<path d="M226.148 178.858L225.032 179.206L226.204 182.967L224.242 183.579L223.07 179.818L222.444 180.013L221.958 178.456L222.584 178.261L222.039 176.513L224.001 175.901L224.546 177.649L225.662 177.301L226.148 178.858Z" fill="#16242C"/>
<path d="M230.785 176.261L230.626 175.75L232.591 175.137L234.25 180.455L232.284 181.068L232.102 180.484C231.885 181.11 231.396 181.539 230.635 181.777C229.874 182.014 229.119 181.94 228.395 181.547C227.703 181.173 227.239 180.601 227.002 179.841C226.73 178.969 226.789 178.17 227.184 177.449C227.543 176.791 228.124 176.332 228.926 176.082C229.595 175.874 230.215 175.932 230.784 176.258L230.785 176.261ZM229.874 177.564C229.546 177.666 229.297 177.87 229.122 178.176C228.938 178.503 228.896 178.833 229.001 179.167C229.105 179.502 229.325 179.768 229.65 179.918C229.986 180.076 230.317 180.102 230.645 180C230.973 179.898 231.236 179.682 231.413 179.357C231.585 179.041 231.618 178.718 231.515 178.387C231.412 178.056 231.19 177.797 230.865 177.636C230.54 177.486 230.21 177.463 229.875 177.567L229.874 177.564Z" fill="#16242C"/>
<path d="M235.614 180.029L233.955 174.711L235.917 174.099L236.188 174.968C236.263 174.578 236.444 174.252 236.733 173.989C236.958 173.76 237.275 173.586 237.684 173.458C237.701 173.453 237.722 173.447 237.747 173.446C237.772 173.442 237.817 173.431 237.88 173.419C237.942 173.403 238.011 173.385 238.085 173.362L238.645 175.159C238.345 175.112 238.041 175.138 237.74 175.232C237.355 175.352 237.087 175.54 236.933 175.797C236.72 176.151 236.697 176.601 236.868 177.148L237.577 179.42L235.615 180.032L235.614 180.029Z" fill="#16242C"/>
<path d="M242.918 173.628L241.802 173.976L242.974 177.737L241.009 178.35L239.836 174.589L239.21 174.784L238.725 173.227L239.35 173.032L238.805 171.284L240.771 170.671L241.316 172.419L242.432 172.071L242.918 173.628Z" fill="#16242C"/>
<path d="M244.366 176.815L244.654 175.275C244.955 175.372 245.256 175.422 245.561 175.424C245.843 175.433 246.11 175.396 246.363 175.317C246.593 175.246 246.744 175.145 246.822 175.016C246.867 174.934 246.875 174.838 246.843 174.736C246.811 174.634 246.752 174.563 246.67 174.527C246.586 174.485 246.393 174.473 246.097 174.498L245.546 174.54C245.083 174.58 244.714 174.526 244.443 174.373C244.13 174.201 243.916 173.933 243.803 173.569C243.642 173.054 243.68 172.568 243.913 172.113C244.205 171.551 244.792 171.134 245.675 170.859C246.28 170.67 246.901 170.602 247.537 170.656L247.253 172.076C246.806 172.024 246.434 172.043 246.139 172.135C245.96 172.191 245.819 172.275 245.72 172.385C245.624 172.483 245.594 172.589 245.629 172.701C245.671 172.835 245.779 172.909 245.955 172.926C246.027 172.929 246.14 172.923 246.288 172.909C246.435 172.892 246.558 172.882 246.657 172.88L247.042 172.864C247.424 172.85 247.737 172.903 247.981 173.029C248.337 173.195 248.586 173.505 248.727 173.958C248.896 174.499 248.85 174.995 248.588 175.451C248.269 176.036 247.662 176.47 246.769 176.749C245.991 176.991 245.189 177.015 244.367 176.818L244.366 176.815Z" fill="#16242C"/>
<path d="M223.948 190.619L224.871 193.579L227.939 192.623L227.016 189.662L229.15 188.996L231.625 196.931L229.49 197.596L228.488 194.383L225.42 195.34L226.422 198.553L224.298 199.216L221.823 191.281L223.948 190.619Z" fill="#16242C"/>
<path d="M238.204 192.132L238.267 192.335L234.181 193.61C234.297 193.984 234.504 194.243 234.804 194.394C235.037 194.512 235.336 194.516 235.694 194.404C235.941 194.327 236.135 194.213 236.288 194.06C236.416 193.923 236.495 193.77 236.522 193.596L238.399 193.01C238.412 193.478 238.302 193.911 238.078 194.312C237.707 194.967 237.039 195.445 236.075 195.746C235.111 196.046 234.277 196.012 233.553 195.644C232.848 195.288 232.372 194.703 232.118 193.886C231.863 193.07 231.911 192.26 232.298 191.571C232.685 190.885 233.352 190.393 234.302 190.097C235.179 189.823 235.958 189.847 236.639 190.163C237.39 190.522 237.913 191.176 238.209 192.127L238.204 192.132ZM233.9 192.496L236.122 191.803C235.993 191.591 235.829 191.434 235.627 191.331C235.371 191.202 235.071 191.192 234.729 191.298C234.388 191.405 234.157 191.581 234.02 191.832C233.912 192.057 233.873 192.278 233.903 192.495L233.9 192.496Z" fill="#16242C"/>
<path d="M240.101 194.292L238.443 188.974L240.405 188.362L240.675 189.231C240.75 188.841 240.931 188.515 241.22 188.252C241.446 188.023 241.762 187.849 242.172 187.721C242.189 187.716 242.209 187.71 242.235 187.709C242.259 187.705 242.304 187.694 242.367 187.682C242.429 187.666 242.498 187.648 242.572 187.625L243.133 189.422C242.832 189.375 242.529 189.402 242.228 189.495C241.842 189.616 241.574 189.804 241.42 190.06C241.208 190.414 241.185 190.864 241.355 191.412L242.064 193.684L240.102 194.295L240.101 194.292Z" fill="#16242C"/>
<path d="M250.166 188.401L250.23 188.605L246.144 189.879C246.26 190.253 246.467 190.512 246.767 190.663C247 190.781 247.298 190.785 247.657 190.673C247.904 190.596 248.098 190.482 248.251 190.33C248.379 190.193 248.458 190.039 248.485 189.865L250.362 189.279C250.374 189.747 250.265 190.18 250.041 190.581C249.67 191.236 249.002 191.714 248.038 192.015C247.074 192.316 246.239 192.281 245.516 191.913C244.811 191.557 244.335 190.972 244.081 190.155C243.826 189.339 243.874 188.529 244.261 187.84C244.648 187.154 245.315 186.662 246.265 186.366C247.141 186.093 247.921 186.116 248.602 186.432C249.353 186.792 249.876 187.445 250.172 188.396L250.166 188.401ZM245.863 188.765L248.085 188.072C247.956 187.86 247.792 187.703 247.59 187.601C247.334 187.472 247.034 187.461 246.692 187.567C246.35 187.674 246.12 187.85 245.983 188.102C245.875 188.326 245.836 188.547 245.866 188.764L245.863 188.765Z" fill="#16242C"/>
</g>
</g>
<defs>
<filter id="filter0_i_558_902" x="141.157" y="121.097" width="192.378" height="183.609" filterUnits="userSpaceOnUse" color-interpolation-filters="sRGB">
<feFlood flood-opacity="0" result="BackgroundImageFix"/>
<feBlend mode="normal" in="SourceGraphic" in2="BackgroundImageFix" result="shape"/>
<feColorMatrix in="SourceAlpha" type="matrix" values="0 0 0 0 0 0 0 0 0 0 0 0 0 0 0 0 0 0 127 0" result="hardAlpha"/>
<feOffset dy="37.9733"/>
<feGaussianBlur stdDeviation="30.8511"/>
<feComposite in2="hardAlpha" operator="arithmetic" k2="-1" k3="1"/>
<feColorMatrix type="matrix" values="0 0 0 0 1 0 0 0 0 1 0 0 0 0 1 0 0 0 0.8 0"/>
<feBlend mode="lighten" in2="shape" result="effect1_innerShadow_558_902"/>
</filter>
<filter id="filter1_i_558_902" x="256.524" y="121.097" width="77.0107" height="147.63" filterUnits="userSpaceOnUse" color-interpolation-filters="sRGB">
<feFlood flood-opacity="0" result="BackgroundImageFix"/>
<feBlend mode="normal" in="SourceGraphic" in2="BackgroundImageFix" result="shape"/>
<feColorMatrix in="SourceAlpha" type="matrix" values="0 0 0 0 0 0 0 0 0 0 0 0 0 0 0 0 0 0 127 0" result="hardAlpha"/>
<feOffset dy="37.9733"/>
<feGaussianBlur stdDeviation="30.8511"/>
<feComposite in2="hardAlpha" operator="arithmetic" k2="-1" k3="1"/>
<feColorMatrix type="matrix" values="0 0 0 0 1 0 0 0 0 1 0 0 0 0 1 0 0 0 0.8 0"/>
<feBlend mode="lighten" in2="shape" result="effect1_innerShadow_558_902"/>
</filter>
<filter id="filter2_i_558_902" x="141.157" y="157.076" width="77.0107" height="147.63" filterUnits="userSpaceOnUse" color-interpolation-filters="sRGB">
<feFlood flood-opacity="0" result="BackgroundImageFix"/>
<feBlend mode="normal" in="SourceGraphic" in2="BackgroundImageFix" result="shape"/>
<feColorMatrix in="SourceAlpha" type="matrix" values="0 0 0 0 0 0 0 0 0 0 0 0 0 0 0 0 0 0 127 0" result="hardAlpha"/>
<feOffset dy="37.9733"/>
<feGaussianBlur stdDeviation="30.8511"/>
<feComposite in2="hardAlpha" operator="arithmetic" k2="-1" k3="1"/>
<feColorMatrix type="matrix" values="0 0 0 0 1 0 0 0 0 1 0 0 0 0 1 0 0 0 0.8 0"/>
<feBlend mode="lighten" in2="shape" result="effect1_innerShadow_558_902"/>
</filter>
<filter id="filter3_i_558_902" x="215.85" y="193.58" width="60.0142" height="93.1298" filterUnits="userSpaceOnUse" color-interpolation-filters="sRGB">
<feFlood flood-opacity="0" result="BackgroundImageFix"/>
<feBlend mode="normal" in="SourceGraphic" in2="BackgroundImageFix" result="shape"/>
<feColorMatrix in="SourceAlpha" type="matrix" values="0 0 0 0 0 0 0 0 0 0 0 0 0 0 0 0 0 0 127 0" result="hardAlpha"/>
<feOffset dy="37.9733"/>
<feGaussianBlur stdDeviation="30.8511"/>
<feComposite in2="hardAlpha" operator="arithmetic" k2="-1" k3="1"/>
<feColorMatrix type="matrix" values="0 0 0 0 1 0 0 0 0 1 0 0 0 0 1 0 0 0 0.8 0"/>
<feBlend mode="lighten" in2="shape" result="effect1_innerShadow_558_902"/>
</filter>
<filter id="filter4_ii_558_902" x="138.068" y="61.1047" width="162.789" height="139.229" filterUnits="userSpaceOnUse" color-interpolation-filters="sRGB">
<feFlood flood-opacity="0" result="BackgroundImageFix"/>
<feBlend mode="normal" in="SourceGraphic" in2="BackgroundImageFix" result="shape"/>
<feColorMatrix in="SourceAlpha" type="matrix" values="0 0 0 0 0 0 0 0 0 0 0 0 0 0 0 0 0 0 127 0" result="hardAlpha"/>
<feOffset dy="37.9733"/>
<feGaussianBlur stdDeviation="30.8511"/>
<feComposite in2="hardAlpha" operator="arithmetic" k2="-1" k3="1"/>
<feColorMatrix type="matrix" values="0 0 0 0 1 0 0 0 0 1 0 0 0 0 1 0 0 0 0.8 0"/>
<feBlend mode="lighten" in2="shape" result="effect1_innerShadow_558_902"/>
<feColorMatrix in="SourceAlpha" type="matrix" values="0 0 0 0 0 0 0 0 0 0 0 0 0 0 0 0 0 0 127 0" result="hardAlpha"/>
<feOffset dy="37.9733"/>
<feGaussianBlur stdDeviation="30.8511"/>
<feComposite in2="hardAlpha" operator="arithmetic" k2="-1" k3="1"/>
<feColorMatrix type="matrix" values="0 0 0 0 1 0 0 0 0 1 0 0 0 0 1 0 0 0 0.8 0"/>
<feBlend mode="lighten" in2="effect1_innerShadow_558_902" result="effect2_innerShadow_558_902"/>
</filter>
<filter id="filter5_i_558_902" x="202.608" y="153.981" width="49.4082" height="83.2081" filterUnits="userSpaceOnUse" color-interpolation-filters="sRGB">
<feFlood flood-opacity="0" result="BackgroundImageFix"/>
<feBlend mode="normal" in="SourceGraphic" in2="BackgroundImageFix" result="shape"/>
<feColorMatrix in="SourceAlpha" type="matrix" values="0 0 0 0 0 0 0 0 0 0 0 0 0 0 0 0 0 0 127 0" result="hardAlpha"/>
<feOffset dy="37.9733"/>
<feGaussianBlur stdDeviation="30.8511"/>
<feComposite in2="hardAlpha" operator="arithmetic" k2="-1" k3="1"/>
<feColorMatrix type="matrix" values="0 0 0 0 1 0 0 0 0 1 0 0 0 0 1 0 0 0 0.8 0"/>
<feBlend mode="lighten" in2="shape" result="effect1_innerShadow_558_902"/>
</filter>
<radialGradient id="paint0_radial_558_902" cx="0" cy="0" r="1" gradientUnits="userSpaceOnUse" gradientTransform="translate(270.315 123.563) rotate(71.2745) scale(35.5357 48.9747)">
<stop stop-color="#949494"/>
<stop offset="0.635171" stop-color="#181818"/>
<stop offset="1" stop-color="#1D1D1D"/>
</radialGradient>
<radialGradient id="paint1_radial_558_902" cx="0" cy="0" r="1" gradientUnits="userSpaceOnUse" gradientTransform="translate(154.948 159.541) rotate(71.2745) scale(35.5357 48.9747)">
<stop stop-color="#949494"/>
<stop offset="0.635171" stop-color="#181818"/>
<stop offset="1" stop-color="#1D1D1D"/>
</radialGradient>
<radialGradient id="paint2_radial_558_902" cx="0" cy="0" r="1" gradientUnits="userSpaceOnUse" gradientTransform="translate(230.951 200.247) rotate(69.3807) scale(15.1412 48.9082)">
<stop stop-color="#949494"/>
<stop offset="0.635171" stop-color="#181818"/>
<stop offset="1" stop-color="#1D1D1D"/>
</radialGradient>
<radialGradient id="paint3_radial_558_902" cx="0" cy="0" r="1" gradientUnits="userSpaceOnUse" gradientTransform="translate(167.453 62.0493) rotate(67.8162) scale(35.2751 167.552)">
<stop stop-color="#949494"/>
<stop offset="0.635171" stop-color="#181818"/>
<stop offset="1" stop-color="#1D1D1D"/>
</radialGradient>
<clipPath id="clip0_558_902">
<rect width="410.472" height="225.542" fill="white" transform="translate(0 122.206) rotate(-17.3207)"/>
</clipPath>
</defs>
</svg>
